<svg xmlns="http://www.w3.org/2000/svg" version="1.1" xmlns:xlink="http://www.w3.org/1999/xlink" xmlns:svgjs="http://svgjs.dev/svgjs" width="1500" height="1500" viewBox="0 0 1500 1500"><rect width="1500" height="1500" fill="#ffffff"></rect><g transform="matrix(0.6666666666666666,0,0,0.6666666666666666,249.39393939393938,438.5856950067477)"><svg viewBox="0 0 396 247" data-background-color="#ffffff" preserveAspectRatio="xMidYMid meet" height="935" width="1500" xmlns="http://www.w3.org/2000/svg" xmlns:xlink="http://www.w3.org/1999/xlink"><g id="tight-bounds" transform="matrix(1,0,0,1,0.2400000000000091,-0.09999999999999432)"><svg viewBox="0 0 395.52 247.2" height="247.2" width="395.52"><g><svg></svg></g><g><svg viewBox="0 0 395.52 247.2" height="247.2" width="395.52"><g transform="matrix(1,0,0,1,75.54432,71.79792243654823)"><svg viewBox="0 0 244.43135999999998 103.60415512690352" height="103.60415512690352" width="244.43135999999998"><g><svg viewBox="0 0 244.43135999999998 103.60415512690352" height="103.60415512690352" width="244.43135999999998"><g><svg viewBox="0 0 244.43135999999998 103.60415512690352" height="103.60415512690352" width="244.43135999999998"><g><svg viewBox="0 0 244.43135999999998 103.60415512690352" height="103.60415512690352" width="244.43135999999998"><g id="textblocktransform"><svg viewBox="0 0 244.43135999999998 103.60415512690352" height="103.60415512690352" width="244.43135999999998" id="textblock"><g><svg viewBox="0 0 244.43135999999998 103.60415512690352" height="103.60415512690352" width="244.43135999999998"><g transform="matrix(1,0,0,1,0,0)"><svg width="244.43135999999998" viewBox="0.5 -33.4 78.8 33.4" height="103.60415512690352" data-palette-color="#919591"><path d="M16.3 0L11.6 0 11.6-29.35 0.5-29.35 0.5-33.4 27.4-33.4 27.4-29.35 16.3-29.35 16.3 0ZM45.3 0L31.2 0 31.2-3.7 35.9-3.7 35.9-29.7 31.2-29.7 31.2-33.4 45.3-33.4 45.3-29.7 40.6-29.7 40.6-3.7 45.3-3.7 45.3 0ZM57.1 0L52.4 0 52.4-33.4 57.1-33.4 57.1-19.2 74.59-19.2 74.59-33.4 79.3-33.4 79.3 0 74.59 0 74.59-15.15 57.1-15.15 57.1 0Z" opacity="1" transform="matrix(1,0,0,1,0,0)" fill="#919591" class="wordmark-text-0" data-fill-palette-color="primary" id="text-0"></path></svg></g></svg></g></svg></g></svg></g></svg></g></svg></g></svg></g><path d="M228.7 65.798L228.7 14.94 11.38 14.94 11.38 232.26 228.7 232.26 228.7 181.402 219.357 181.402 219.357 222.917 20.723 222.917 20.723 24.283 219.357 24.283 219.357 65.798Z" fill="#919591" stroke="transparent" data-fill-palette-color="tertiary"></path></svg></g><defs></defs></svg><rect width="395.52" height="247.2" fill="none" stroke="none" visibility="hidden"></rect></g></svg></g></svg>